<?xml version="1.0" encoding="UTF-8" standalone="no"?>
<!-- Created with Inkscape (http://www.inkscape.org/) -->

<svg
   width="241.88977"
   height="241.88977"
   viewBox="0 0 64 64"
   version="1.1"
   id="svg7673"
   inkscape:version="1.1.2 (0a00cf5339, 2022-02-04)"
   sodipodi:docname="favicon.svg"
   xmlns:inkscape="http://www.inkscape.org/namespaces/inkscape"
   xmlns:sodipodi="http://sodipodi.sourceforge.net/DTD/sodipodi-0.dtd"
   xmlns="http://www.w3.org/2000/svg"
   xmlns:svg="http://www.w3.org/2000/svg">
  <sodipodi:namedview
     id="namedview7675"
     pagecolor="#ffffff"
     bordercolor="#666666"
     borderopacity="1.0"
     inkscape:showpageshadow="2"
     inkscape:pageopacity="0.0"
     inkscape:pagecheckerboard="0"
     inkscape:deskcolor="#d1d1d1"
     inkscape:document-units="px"
     showgrid="false"
     inkscape:zoom="2.2072683"
     inkscape:cx="154.94265"
     inkscape:cy="169.44021"
     inkscape:window-width="2560"
     inkscape:window-height="1403"
     inkscape:window-x="0"
     inkscape:window-y="0"
     inkscape:window-maximized="1"
     inkscape:current-layer="layer1"
     inkscape:pageshadow="2"
     units="px">
    <inkscape:grid
       type="xygrid"
       id="grid988" />
  </sodipodi:namedview>
  <defs
     id="defs7670" />
  <g
     inkscape:label="Layer 1"
     inkscape:groupmode="layer"
     id="layer1">
    <path
       d="m 43.102104,17.624134 c -3.258829,0 -5.896963,2.644648 -5.896963,5.890969 0,3.251489 2.644644,5.895307 5.894894,5.895307 3.244255,0 5.884868,-2.643818 5.884868,-5.895307 0,-3.246321 -2.640613,-5.890969 -5.882799,-5.890969"
       style="fill:#327ea8;fill-opacity:1;fill-rule:nonzero;stroke:none;stroke-width:0.103363"
       id="path40" />
    <path
       d="m 59.698686,56.175328 c -1.832318,0 -3.317332,1.492353 -3.317332,3.324979 0,1.834281 1.485014,3.329013 3.317332,3.329013 1.839136,0 3.333868,-1.494732 3.333868,-3.329013 0,-1.832626 -1.494732,-3.324979 -3.333868,-3.324979"
       style="fill:#a91569;fill-opacity:1;fill-rule:nonzero;stroke:none;stroke-width:0.103363"
       id="path42" />
    <path
       d="m 59.698686,47.870008 c -1.832318,0 -3.317332,1.491837 -3.317332,3.326115 0,1.8379 1.485014,3.332322 3.317332,3.332322 1.839136,0 3.333868,-1.494422 3.333868,-3.332322 0,-1.834278 -1.494732,-3.326115 -3.333868,-3.326115"
       style="fill:#a91569;fill-opacity:1;fill-rule:nonzero;stroke:none;stroke-width:0.103363"
       id="path44" />
    <path
       d="m 59.698686,39.566651 c -1.832318,0 -3.317332,1.49308 -3.317332,3.326945 0,1.83552 1.485014,3.325395 3.317332,3.325395 1.839136,0 3.333868,-1.489875 3.333868,-3.325395 0,-1.833865 -1.494732,-3.326945 -3.333868,-3.326945"
       style="fill:#a91569;fill-opacity:1;fill-rule:nonzero;stroke:none;stroke-width:0.103363"
       id="path46" />
    <path
       d="m 51.398121,56.175328 c -1.833042,0 -3.329013,1.489874 -3.330253,3.320947 0.0012,1.840378 1.497211,3.333045 3.330253,3.333045 1.837173,0 3.333868,-1.494732 3.333868,-3.329013 0,-1.832626 -1.496695,-3.324979 -3.333868,-3.324979"
       style="fill:#de352e;fill-opacity:1;fill-rule:nonzero;stroke:none;stroke-width:0.103363"
       id="path48" />
    <path
       d="m 51.398121,47.870008 c -1.833042,0 -3.329013,1.489045 -3.330253,3.320844 0.0012,1.846479 1.497211,3.337593 3.330253,3.337593 1.837173,0 3.333868,-1.494422 3.333868,-3.332322 0,-1.834278 -1.496695,-3.326115 -3.333868,-3.326115"
       style="fill:#de352e;fill-opacity:1;fill-rule:nonzero;stroke:none;stroke-width:0.103363"
       id="path50" />
    <path
       d="m 43.100035,56.175328 c -1.83831,0 -3.32901,1.492353 -3.32901,3.324979 0,1.834281 1.4907,3.329013 3.32901,3.329013 1.824562,0 3.314437,-1.492667 3.32095,-3.32095 -0.0064,-1.843168 -1.496388,-3.333042 -3.32095,-3.333042"
       style="fill:#327ea8;fill-opacity:1;fill-rule:nonzero;stroke:none;stroke-width:0.103363"
       id="path52" />
    <path
       d="m 43.100035,47.870008 c -1.83831,0 -3.32901,1.491837 -3.32901,3.326115 0,1.8379 1.4907,3.332322 3.32901,3.332322 1.824562,0 3.314437,-1.491114 3.32095,-3.323432 -0.0064,-1.84596 -1.496388,-3.335005 -3.32095,-3.335005"
       style="fill:#327ea8;fill-opacity:1;fill-rule:nonzero;stroke:none;stroke-width:0.103363"
       id="path54" />
    <path
       d="m 43.100035,39.566651 c -1.83831,0 -3.32901,1.49308 -3.32901,3.326945 0,1.83552 1.4907,3.325395 3.32901,3.325395 1.829836,0 3.32095,-1.489875 3.32095,-3.325395 0,-1.833865 -1.491114,-3.326945 -3.32095,-3.326945"
       style="fill:#327ea8;fill-opacity:1;fill-rule:nonzero;stroke:none;stroke-width:0.103363"
       id="path56" />
    <path
       d="m 34.789444,56.175328 c -1.831076,0 -3.323016,1.492353 -3.323016,3.324979 0,1.834281 1.49194,3.329013 3.323016,3.329013 1.83831,0 3.333871,-1.494732 3.333871,-3.329013 0,-1.832626 -1.495561,-3.324979 -3.333871,-3.324979"
       style="fill:#7dceee;fill-opacity:1;fill-rule:nonzero;stroke:none;stroke-width:0.103363"
       id="path58" />
    <path
       d="m 34.789444,47.870008 c -1.831076,0 -3.323016,1.491837 -3.323016,3.326115 0,1.8379 1.49194,3.332322 3.323016,3.332322 1.83831,0 3.333871,-1.494422 3.333871,-3.332322 0,-1.834278 -1.495561,-3.326115 -3.333871,-3.326115"
       style="fill:#7dceee;fill-opacity:1;fill-rule:nonzero;stroke:none;stroke-width:0.103363"
       id="path60" />
    <path
       d="m 34.789444,39.566651 c -1.831076,0 -3.323016,1.49308 -3.323016,3.326945 0,1.83552 1.49194,3.325395 3.323016,3.325395 1.83831,0 3.333871,-1.489875 3.333871,-3.325395 0,-1.833865 -1.495561,-3.326945 -3.333871,-3.326945"
       style="fill:#7dceee;fill-opacity:1;fill-rule:nonzero;stroke:none;stroke-width:0.103363"
       id="path62" />
    <path
       d="m 26.488053,56.175328 c -1.835107,0 -3.334284,1.492353 -3.334284,3.324979 0,1.834281 1.499177,3.329013 3.334284,3.329013 1.837173,0 3.33025,-1.494732 3.33025,-3.329013 0,-1.832626 -1.493077,-3.324979 -3.33025,-3.324979"
       style="fill:#64237b;fill-opacity:1;fill-rule:nonzero;stroke:none;stroke-width:0.103363"
       id="path64" />
    <path
       d="m 26.488053,47.870008 c -1.835107,0 -3.334284,1.491837 -3.334284,3.326115 0,1.8379 1.499177,3.332322 3.334284,3.332322 1.837173,0 3.33025,-1.494422 3.33025,-3.332322 0,-1.834278 -1.493077,-3.326115 -3.33025,-3.326115"
       style="fill:#64237b;fill-opacity:1;fill-rule:nonzero;stroke:none;stroke-width:0.103363"
       id="path66" />
    <path
       d="m 26.488053,39.566651 c -1.835107,0 -3.334284,1.49308 -3.334284,3.326945 0,1.83552 1.499177,3.325395 3.334284,3.325395 1.837173,0 3.33025,-1.489875 3.33025,-3.325395 0,-1.833865 -1.493077,-3.326945 -3.33025,-3.326945"
       style="fill:#64237b;fill-opacity:1;fill-rule:nonzero;stroke:none;stroke-width:0.103363"
       id="path68" />
    <path
       d="m 26.488053,31.263191 c -1.835107,0 -3.334284,1.489151 -3.334284,3.320227 0,1.83831 1.499177,3.333766 3.334284,3.333766 1.837173,0 3.33025,-1.495456 3.33025,-3.333766 0,-1.831076 -1.493077,-3.320227 -3.33025,-3.320227"
       style="fill:#64237b;fill-opacity:1;fill-rule:nonzero;stroke:none;stroke-width:0.103363"
       id="path70" />
    <path
       d="m 43.100035,31.263191 c -1.83831,0 -3.32901,1.489151 -3.32901,3.320227 0,1.83831 1.4907,3.333766 3.32901,3.333766 1.829836,0 3.32095,-1.495456 3.32095,-3.333766 0,-1.831076 -1.491114,-3.320227 -3.32095,-3.320227"
       style="fill:#327ea8;fill-opacity:1;fill-rule:nonzero;stroke:none;stroke-width:0.103363"
       id="path72" />
    <path
       d="m 43.102104,15.771353 c 1.827767,0 3.318881,-1.496385 3.318881,-3.32901 0,-1.834384 -1.491114,-3.3253951 -3.32095,-3.3253951 -1.83831,0 -3.32901,1.4910111 -3.32901,3.3253951 0,1.832625 1.488632,3.32901 3.321776,3.32901"
       style="fill:#327ea8;fill-opacity:1;fill-rule:nonzero;stroke:none;stroke-width:0.103363"
       id="path74" />
    <path
       d="m 43.100035,0.81152541 c -1.83831,0 -3.32901,1.49193999 -3.32901,3.32622109 0,1.8378968 1.4907,3.3309736 3.32901,3.3309736 1.829836,0 3.32095,-1.4930768 3.32095,-3.3309736 0,-1.8342811 -1.491114,-3.32622109 -3.32095,-3.32622109"
       style="fill:#327ea8;fill-opacity:1;fill-rule:nonzero;stroke:none;stroke-width:0.103363"
       id="path76" />
    <path
       d="m 26.488053,22.958284 c -1.835107,0 -3.334284,1.490704 -3.334284,3.329014 0,1.835107 1.499177,3.326532 3.334284,3.326532 1.837173,0 3.33025,-1.491425 3.33025,-3.326532 0,-1.83831 -1.493077,-3.329014 -3.33025,-3.329014"
       style="fill:#64237b;fill-opacity:1;fill-rule:nonzero;stroke:none;stroke-width:0.103363"
       id="path78" />
    <path
       d="m 18.182733,56.175328 c -1.839965,0 -3.33635,1.492353 -3.33635,3.324979 0,1.834281 1.496385,3.329013 3.33635,3.329013 1.834278,0 3.325703,-1.494732 3.325703,-3.329013 0,-1.832626 -1.491425,-3.324979 -3.325703,-3.324979"
       style="fill:#7fc629;fill-opacity:1;fill-rule:nonzero;stroke:none;stroke-width:0.103363"
       id="path80" />
    <path
       d="m 18.182733,47.870008 c -1.839965,0 -3.33635,1.491837 -3.33635,3.326115 0,1.8379 1.496385,3.332322 3.33635,3.332322 1.834278,0 3.325703,-1.494422 3.325703,-3.332322 0,-1.834278 -1.491425,-3.326115 -3.325703,-3.326115"
       style="fill:#7fc629;fill-opacity:1;fill-rule:nonzero;stroke:none;stroke-width:0.103363"
       id="path82" />
    <path
       d="m 18.182733,39.566651 c -1.839965,0 -3.33635,1.49308 -3.33635,3.326945 0,1.83552 1.496385,3.325395 3.33635,3.325395 1.834278,0 3.325703,-1.489875 3.325703,-3.325395 0,-1.833865 -1.491425,-3.326945 -3.325703,-3.326945"
       style="fill:#7fc629;fill-opacity:1;fill-rule:nonzero;stroke:none;stroke-width:0.103363"
       id="path84" />
    <path
       d="m 4.346582,56.175328 c -1.8371115,0 -3.3318438,1.492353 -3.3318438,3.324979 0,1.834281 1.4947323,3.329013 3.3318438,3.329013 1.8330799,0 3.3221486,-1.494732 3.3221486,-3.329013 0,-1.832626 -1.4890687,-3.324979 -3.3221486,-3.324979"
       style="fill:#de352e;fill-opacity:1;fill-rule:nonzero;stroke:none;stroke-width:0.103363"
       id="path86" />
    <path
       d="m 9.8793259,47.870008 c -1.8383216,0 -3.3322393,1.491837 -3.3322393,3.326115 0,1.8379 1.4939177,3.332322 3.3322393,3.332322 1.8310231,0 3.3176921,-1.494422 3.3176921,-3.332322 0,-1.834278 -1.486669,-3.326115 -3.3176921,-3.326115"
       style="fill:#de352e;fill-opacity:1;fill-rule:nonzero;stroke:none;stroke-width:0.103363"
       id="path88" />
    <path
       d="m 9.8793259,31.263191 c -1.8383216,0 -3.3322393,1.491114 -3.3322393,3.324258 0,1.837071 1.4939177,3.329735 3.3322393,3.329735 1.8310231,0 3.3176921,-1.492664 3.3176921,-3.329735 0,-1.833144 -1.486669,-3.324258 -3.3176921,-3.324258"
       style="fill:#de352e;fill-opacity:1;fill-rule:nonzero;stroke:none;stroke-width:0.103363"
       id="path90" />
    <path
       d="m 4.346582,39.566651 c -1.8371115,0 -3.3318438,1.49308 -3.3318438,3.326945 0,1.83552 1.4947323,3.325395 3.3318438,3.325395 1.8330799,0 3.3221486,-1.489875 3.3221486,-3.325395 0,-1.833865 -1.4890687,-3.326945 -3.3221486,-3.326945"
       style="fill:#de352e;fill-opacity:1;fill-rule:nonzero;stroke:none;stroke-width:0.103363"
       id="path92" />
  </g>
</svg>
